<svg xmlns="http://www.w3.org/2000/svg" width="44px" height="14px" viewBox="0 0 44 14"><path fill="#696A6A" d="M.357 12.026h.33L.38 13.177c-.046.17-.037.3.026.385.062.086.179.13.349.13a.65.65 0 00.416-.13.703.703 0 00.23-.385l.306-1.151h.334l-.313 1.18c-.069.256-.19.448-.364.575-.174.128-.402.191-.684.191-.282 0-.476-.063-.582-.19-.105-.127-.124-.32-.055-.576l.313-1.18zM1.998 13.922l.524-1.971.995 1.159a2.054 2.054 0 01.162.23l.35-1.314h.307l-.523 1.97-1.016-1.18a1.062 1.062 0 01-.142-.213l-.35 1.319h-.307zM4.31 13.922l.503-1.896h.334l-.504 1.896h-.334zM5.122 13.922l.504-1.896h1.145l-.07.261h-.81l-.126.473h.811l-.072.27h-.811l-.237.892h-.334zM6.635 13.922l.504-1.896h.333l-.504 1.896h-.333zM7.448 13.922l.504-1.896h1.145l-.07.261h-.811l-.127.476h.812l-.072.27h-.812l-.162.613h.811l-.073.276H7.448zM9.383 13.643h.28c.155 0 .273-.01.355-.028a.7.7 0 00.227-.096.845.845 0 00.235-.229c.063-.09.11-.197.143-.318a.777.777 0 00.026-.317.405.405 0 00-.114-.229.393.393 0 00-.183-.096 1.711 1.711 0 00-.371-.028H9.74l-.357 1.341zm-.407.279l.504-1.896h.45c.292 0 .494.013.606.04a.641.641 0 01.277.137.56.56 0 01.184.323.994.994 0 01-.028.45 1.314 1.314 0 01-.21.446 1.206 1.206 0 01-.698.46c-.122.026-.304.04-.546.04h-.54zM12.593 12.819h.086c.185 0 .313-.02.385-.056a.29.29 0 00.145-.197c.026-.101.013-.172-.042-.214-.055-.041-.17-.062-.348-.062h-.085l-.14.529zm-.088.252l-.226.85h-.312l.504-1.895h.504c.15 0 .258.007.324.023.067.014.121.04.165.074a.313.313 0 01.104.178.518.518 0 01-.011.247.727.727 0 01-.121.248.644.644 0 01-.403.253 1.885 1.885 0 01-.336.022h-.192zM13.969 13.177h.572l-.096-.432a1.537 1.537 0 01-.02-.215 2.047 2.047 0 01-.131.215l-.325.432zm.724.745l-.103-.488h-.813l-.368.488h-.35l1.517-1.971.469 1.97h-.352zM15.523 13.922l.23-.868-.417-1.028h.35l.26.643a1.398 1.398 0 01.045.152 1.525 1.525 0 01.129-.16l.61-.635h.334l-.98 1.028-.23.868h-.331zM18.705 12.985c0-.014.005-.055.014-.121.008-.056.013-.101.017-.138a1.157 1.157 0 01-.163.262l-.806 1.01-.262-1.03a1.091 1.091 0 01-.037-.242 1.252 1.252 0 01-.108.262l-.468.934h-.307l1.01-1.977.288 1.197a14.603 14.603 0 01.044.258 2.748 2.748 0 01.186-.26l.91-1.195-.03 1.977h-.31l.022-.937zM19.26 13.922l.504-1.896h1.145l-.07.261h-.812l-.126.476h.812l-.072.27h-.812l-.163.613h.812l-.074.276H19.26zM20.787 13.922l.524-1.971.996 1.159a2.065 2.065 0 01.161.23l.35-1.314h.308l-.524 1.97-1.016-1.18a1.057 1.057 0 01-.141-.213l-.35 1.319h-.308zM24.19 12.287l-.434 1.635h-.333l.434-1.635h-.545l.07-.261h1.42l-.069.261h-.542zM24.536 13.542l.297-.113c.003.084.032.149.087.193a.375.375 0 00.24.067.432.432 0 00.257-.077c.072-.05.12-.119.142-.204.03-.112-.044-.21-.22-.298a1.447 1.447 0 00-.057-.029c-.2-.101-.326-.194-.38-.276-.052-.083-.063-.183-.032-.302a.648.648 0 01.27-.376.832.832 0 01.485-.144.68.68 0 01.358.081.304.304 0 01.15.233l-.293.124a.287.287 0 00-.1-.13.281.281 0 00-.159-.042.407.407 0 00-.23.064.297.297 0 00-.126.174c-.03.114.057.22.263.319l.037.018c.18.086.297.17.35.253.054.082.065.185.032.309a.739.739 0 01-.297.428.913.913 0 01-.539.158c-.175 0-.308-.037-.4-.111-.092-.074-.137-.18-.135-.319zM27.001 13.922l.504-1.896h.333l-.504 1.896h-.333zM27.814 13.922l.524-1.971.995 1.159a2.065 2.065 0 01.162.23l.35-1.314h.308l-.524 1.97-1.016-1.18a1.058 1.058 0 01-.142-.213l-.35 1.319h-.307zM31.217 12.287l-.434 1.635h-.334l.434-1.635h-.545l.07-.261h1.42l-.069.261h-.542zM31.58 13.922l.504-1.896h1.145l-.07.261h-.81l-.127.476h.811l-.072.27h-.811l-.163.613h.811l-.073.276H31.58zM33.73 12.834h.061c.177 0 .299-.019.367-.057.068-.038.115-.105.14-.202.028-.104.017-.178-.034-.22-.05-.044-.16-.065-.328-.065h-.06l-.145.544zm-.084.24l-.226.848h-.312l.504-1.896h.465c.137 0 .24.008.311.024.07.017.128.044.171.082a.32.32 0 01.1.178.514.514 0 01-.011.238.678.678 0 01-.214.357.714.714 0 01-.393.154l.477.863h-.377l-.457-.849h-.038zM34.716 13.922l.504-1.896h1.145l-.07.261h-.811l-.126.473h.812l-.072.27h-.812l-.237.892h-.333zM36.751 13.177h.572l-.095-.432a1.464 1.464 0 01-.02-.215 2.248 2.248 0 01-.132.215l-.325.432zm.725.745l-.103-.488h-.813l-.368.488h-.35l1.517-1.971.468 1.97h-.351zM39.999 12.487a.736.736 0 00-.255-.167.97.97 0 00-.917.144.93.93 0 00-.348.517c-.055.204-.031.373.07.506.102.133.257.2.465.2.122 0 .243-.02.363-.06.12-.04.242-.1.364-.18l-.093.348a1.355 1.355 0 01-.683.177 1.13 1.13 0 01-.416-.07.712.712 0 01-.296-.21.66.66 0 01-.145-.321.918.918 0 01.024-.393 1.22 1.22 0 01.184-.392 1.46 1.46 0 01.726-.534c.145-.047.294-.071.447-.071.12 0 .23.016.332.048.1.033.193.082.279.147l-.101.311zM40.031 13.922l.504-1.896h1.145l-.07.261H40.8l-.126.476h.811l-.072.27h-.811l-.163.613h.811l-.073.276h-1.145z"></path><path fill="#66686C" d="M33.947 10.373h-2.293L34.844.002h2.292l-3.189 10.373zM32.757.33c-.16-.198-.404-.298-.737-.298H19.41l-.624 2.032h2.294v-.001h9.176l-.668 2.17h-9.176V4.23h-2.292l-1.904 6.189h2.295l1.277-4.154h10.315c.322 0 .625-.099.91-.297.285-.198.472-.442.562-.734l1.277-4.154c.093-.302.061-.552-.096-.75zM14.881 9.726c-.127.41-.542.695-1.015.695H2.036c-.323 0-.562-.1-.72-.297-.157-.198-.191-.442-.101-.734L4.1.03h2.296L3.818 8.39h9.18L15.578.031h2.295l-2.99 9.695z"></path><path fill="#27803B" d="M41.096.02L44 5.22l-6.102 5.199L41.097.02z"></path><path fill="#E9661C" d="M39.061.02l2.901 5.2-6.105 5.199L39.061.02z"></path></svg>