    <svg xmlns="http://www.w3.org/2000/svg" viewBox="0 0 45 15" width="46px">
      <defs />
      <g fill="none" fillRule="nonzero">
        <path
          fill="#54C1F0"
          d="M44.7817 4.7395c-.402-1.1493-1.4974-1.9746-2.7841-1.9746h-.027c-.8364 0-1.5902.3482-2.1268.907-.5376-.5588-1.2914-.907-2.127-.907H37.69a2.9331 2.9331 0 00-1.9236.7149v-.2266c-.0176-.2256-.2033-.4029-.4326-.4029H33.36a.436.436 0 00-.4363.4373v10.718a.436.436 0 00.4363.4372h1.9737c.22 0 .401-.1643.4298-.377l-.001-7.6942c0-.027.001-.052.0038-.077.0316-.3435.2831-.6258.6805-.661h.3639c.1662.0148.3064.0733.4168.1615.1718.1365.2674.3463.2674.5765l.0074 7.6562c0 .2423.196.4382.4364.4382h1.9737c.233 0 .4224-.1857.4335-.4168l-.001-7.6878c-.0008-.2525.1161-.4809.3213-.6164.1012-.065.2228-.1087.363-.1216h.3639c.427.037.6851.361.6842.738l.0074 7.646c0 .2423.196.4373.4364.4373h1.9737a.4366.4366 0 00.4363-.4373V5.784c0-.5608-.0631-.7994-.1495-1.0445M31.4202 2.8783h-1.1289V1.0494v-.0056a.3982.3982 0 00-.3983-.3982.3968.3968 0 00-.0752.0083c-1.2514.3435-1.0007 2.0768-3.2854 2.2244h-.222a.457.457 0 00-.0955.0111h-.0019l.0019.001c-.195.0436-.3417.2163-.3417.4242v1.9737c0 .2405.196.4363.4373.4363h1.191l-.0018 8.3692c0 .2386.1931.4317.4317.4317h1.9514a.4313.4313 0 00.4308-.4317l.001-8.3692h1.1056a.437.437 0 00.4363-.4363V3.3146a.437.437 0 00-.4363-.4363"
        />
        <path
          fill="#233266"
          d="M24.319 2.8783h-1.9737a.4362.4362 0 00-.4354.4363v4.0811a.462.462 0 01-.4623.4549h-.8262a.462.462 0 01-.4633-.4623l-.0074-4.0737a.437.437 0 00-.4363-.4363h-1.9737a.4364.4364 0 00-.4364.4363v4.4729c0 1.6989 1.2115 2.9104 2.9114 2.9104 0 0 1.2756 0 1.3145.0074a.4597.4597 0 01.4094.4568.4595.4595 0 01-.4029.4558c-.0111.0018-.0213.0046-.0334.0065l-2.8863.0102a.4364.4364 0 00-.4363.4363v1.9728c0 .2414.195.4363.4363.4363h3.227c1.7008 0 2.9114-1.2106 2.9114-2.9104v-8.255a.4364.4364 0 00-.4364-.4363M5.215 6.4947v1.218a.4632.4632 0 01-.4623.4633l-1.2524.0009V5.7362h1.2524a.4618.4618 0 01.4623.4624v.2961zm.1736-3.6169h-4.314a.4281.4281 0 00-.428.428v1.9338c0 .0037.0009.0074.0009.0111 0 .0093-.001.0186-.001.027v8.7525c0 .2377.1783.4317.3992.4373h2.0109a.4364.4364 0 00.4363-.4363l.0074-2.9996h1.8883c1.5801 0 2.6811-1.0964 2.6811-2.683V5.5645c0-1.5866-1.101-2.6867-2.681-2.6867M13.4042 11.1283v.3083a.4554.4554 0 01-.0074.0724.465.465 0 01-.0186.064c-.0613.1727-.234.298-.4391.298h-.8216c-.2562 0-.4651-.195-.4651-.4344v-.3723c0-.0047-.001-.0093-.001-.014l.001-.9905v-.3101l.0009-.0028c.001-.2386.208-.4317.4642-.4317h.8216c.2571 0 .465.194.465.4345v1.3786zm-.3138-8.2392h-2.7387c-.2423 0-.4381.1838-.4381.4094v.7678c0 .0046.0009.0102.0009.0148 0 .0056-.001.0112-.001.0167v1.0519c0 .2386.208.4335.4642.4335h2.6078c.2061.0325.3695.183.3927.4178v.2544c-.0232.2237-.1847.387-.3816.4057h-1.2913c-1.7175 0-2.941 1.141-2.941 2.7433v2.2949c0 1.593 1.0518 2.7266 2.7572 2.7266h3.5788c.6424 0 1.1633-.4865 1.1633-1.0853v-7.489c0-1.816-.9358-2.9625-3.1732-2.9625"
        />
      </g>
    </svg>