    <svg xmlns="http://www.w3.org/2000/svg" viewBox="0 0 58 22" width="50px">
      <defs>
        <filter
          id="svg-visa-a"
          width="104.4%"
          height="105.3%"
          x="-2.2%"
          y="-2.7%"
          filterUnits="objectBoundingBox">
          <feOffset dy="2" in="SourceAlpha" result="shadowOffsetOuter1" />
          <feGaussianBlur
            in="shadowOffsetOuter1"
            result="shadowBlurOuter1"
            stdDeviation="2"
          />
          <feColorMatrix
            in="shadowBlurOuter1"
            result="shadowMatrixOuter1"
            values="0 0 0 0 0.86131382 0 0 0 0 0.870479167 0 0 0 0 0.900754929 0 0 0 0.4 0"
          />
          <feMerge>
            <feMergeNode in="shadowMatrixOuter1" />
            <feMergeNode in="SourceGraphic" />
          </feMerge>
        </filter>
      </defs>
      <g
        fill="#1A1F71"
        fillRule="evenodd"
        filter="url(#svg-visa-a)"
        transform="translate(-407 -267)">
        <path d="M436.859 274.214c-.029 2.249 2.004 3.504 3.536 4.25 1.573.766 2.102 1.257 2.096 1.942-.012 1.048-1.256 1.51-2.42 1.528-2.03.031-3.21-.548-4.148-.986l-.73 3.421c.94.434 2.684.813 4.491.83 4.243 0 7.02-2.095 7.035-5.343.016-4.121-5.701-4.35-5.662-6.192.013-.558.546-1.154 1.714-1.306.578-.077 2.174-.135 3.984.698l.71-3.31c-.973-.355-2.224-.694-3.78-.694-3.995 0-6.804 2.123-6.826 5.162m17.43-4.877c-.775 0-1.428.452-1.72 1.146l-6.06 14.472h4.24l.843-2.332h5.182l.489 2.332H461l-3.261-15.618h-3.45zm.593 4.22l1.223 5.864h-3.35l2.127-5.865zm-23.164-4.22l-3.342 15.618h4.04l3.34-15.618h-4.038zm-5.977 0l-4.206 10.63-1.7-9.038c-.2-1.01-.989-1.592-1.864-1.592h-6.875l-.096.454c1.411.306 3.015.8 3.986 1.328.595.323.765.605.96 1.373l3.222 12.463h4.27l6.546-15.618h-4.243z" />
      </g>
    </svg>