    <svg xmlns="http://www.w3.org/2000/svg" viewBox="0 0 59 22" width="55px">
      <defs>
        <filter
          id="svg-rupay-a"
          width="104.4%"
          height="105.3%"
          x="-2.2%"
          y="-2.7%"
          filterUnits="objectBoundingBox">
          <feOffset dy="2" in="SourceAlpha" result="shadowOffsetOuter1" />
          <feGaussianBlur
            in="shadowOffsetOuter1"
            result="shadowBlurOuter1"
            stdDeviation="2"
          />
          <feColorMatrix
            in="shadowBlurOuter1"
            result="shadowMatrixOuter1"
            values="0 0 0 0 0.86131382 0 0 0 0 0.870479167 0 0 0 0 0.900754929 0 0 0 0.4 0"
          />
          <feMerge>
            <feMergeNode in="shadowMatrixOuter1" />
            <feMergeNode in="SourceGraphic" />
          </feMerge>
        </filter>
      </defs>
      <g
        fill="none"
        fillRule="nonzero"
        filter="url(#svg-rupay-a)"
        transform="translate(-126 -114)">
        <path fill="#008C44" d="M178.295 117.711l2.887 5.733-6.07 5.735z" />
        <path fill="#F47920" d="M176.295 117.711l2.882 5.733-6.064 5.735z" />
        <path
          fill="#1B3281"
          d="M130.011 127.093l2.879-10.37h4.601c1.439 0 2.4.228 2.888.697.485.466.579 1.225.286 2.293-.177.63-.445 1.157-.815 1.574-.366.418-.85.749-1.445.992.505.121.826.362.97.723.144.362.127.889-.047 1.58l-.35 1.448v.04c-.102.405-.072.622.093.64l-.106.383h-3.113c.01-.244.03-.462.05-.645.023-.187.05-.333.078-.432l.29-1.036c.147-.538.156-.914.02-1.13-.137-.223-.443-.332-.927-.332h-1.309l-.997 3.575h-3.046zm4.69-5.912h1.402c.49 0 .853-.07 1.077-.215.224-.146.39-.393.488-.75.102-.364.077-.617-.068-.761-.145-.146-.492-.218-1.038-.218h-1.32l-.54 1.944zM149.209 119.441l-2.122 7.652h-2.579l.317-1.12c-.453.445-.918.784-1.386 1-.464.22-.954.328-1.47.328-.427 0-.793-.077-1.088-.23a1.487 1.487 0 01-.67-.693c-.132-.269-.19-.6-.168-.997.024-.39.162-1.048.417-1.969l1.1-3.97h2.82l-1.097 3.952c-.16.578-.198.985-.12 1.206.081.223.299.339.651.339.356 0 .655-.129.901-.391.25-.26.444-.65.59-1.166l1.087-3.94h2.817zM148.186 127.093l2.875-10.37h3.955c.873 0 1.549.052 2.03.165.481.108.858.284 1.138.532.351.325.566.726.655 1.208.083.482.034 1.043-.149 1.702-.322 1.16-.886 2.047-1.691 2.668-.807.613-1.806.92-2.998.92h-1.85l-.88 3.175h-3.085zm4.665-5.707h.995c.643 0 1.095-.08 1.36-.233.256-.155.438-.43.55-.823.11-.398.082-.676-.086-.83-.162-.155-.575-.234-1.235-.234h-.993l-.59 2.12zM162.008 127.093l.03-.726c-.456.34-.916.597-1.38.758a4.376 4.376 0 01-1.478.247c-.798 0-1.356-.217-1.678-.637-.318-.42-.37-1.025-.153-1.796.208-.761.577-1.321 1.11-1.68.53-.362 1.417-.621 2.659-.787.157-.026.369-.046.633-.078.918-.106 1.434-.351 1.545-.75.058-.219.023-.38-.113-.48-.13-.102-.376-.153-.729-.153-.293 0-.53.061-.723.188a1.132 1.132 0 00-.435.576h-2.75c.248-.861.756-1.512 1.517-1.947.76-.443 1.76-.656 3-.656.582 0 1.104.054 1.565.173.463.113.8.274 1.02.47.27.244.429.522.474.83.053.307-.005.746-.166 1.322l-1.183 4.266a.85.85 0 00-.024.378c.024.108.072.2.155.266l-.063.216h-2.833zm.686-3.416c-.3.12-.689.235-1.173.362-.76.204-1.187.476-1.28.812-.063.216-.037.383.068.51.105.12.286.18.541.18.468 0 .844-.117 1.125-.351.28-.237.49-.609.638-1.121.025-.11.048-.188.062-.246l.019-.146zM164.862 130.109l.626-2.265h.807c.27 0 .482-.054.632-.15.153-.101.257-.271.316-.5.03-.1.049-.207.061-.327a3.63 3.63 0 000-.419l-.43-7.007h2.854l-.044 4.643 2.492-4.643h2.655l-4.406 7.615c-.5.852-.863 1.436-1.094 1.756-.228.315-.444.56-.654.725-.271.23-.575.393-.903.487-.328.097-.828.145-1.5.145a18.994 18.994 0 01-1.412-.06"
        />
      </g>
    </svg>