    <svg xmlns="http://www.w3.org/2000/svg" viewBox="0 0 56 27" width="48px">
      <defs>
        <filter
          id="svg-googlepay-a"
          width="104.4%"
          height="105.3%"
          x="-2.2%"
          y="-2.7%"
          filterUnits="objectBoundingBox">
          <feOffset dy="2" in="SourceAlpha" result="shadowOffsetOuter1" />
          <feGaussianBlur
            in="shadowOffsetOuter1"
            result="shadowBlurOuter1"
            stdDeviation="2"
          />
          <feColorMatrix
            in="shadowBlurOuter1"
            result="shadowMatrixOuter1"
            values="0 0 0 0 0.86131382 0 0 0 0 0.870479167 0 0 0 0 0.900754929 0 0 0 0.4 0"
          />
          <feMerge>
            <feMergeNode in="shadowMatrixOuter1" />
            <feMergeNode in="SourceGraphic" />
          </feMerge>
        </filter>
      </defs>
      <g
        fill="none"
        fillRule="nonzero"
        filter="url(#svg-googlepay-a)"
        transform="translate(-130 -266)">
        <path
          fill="#5F6368"
          d="M156.702 277.312v5.588h-1.772V269.1h4.701a4.25 4.25 0 013.044 1.195 3.84 3.84 0 011.272 2.912 3.823 3.823 0 01-1.272 2.928c-.822.784-1.836 1.176-3.044 1.175h-2.929v.001zm0-6.512v4.817h2.973c.66.02 1.296-.24 1.754-.714a2.352 2.352 0 000-3.372 2.312 2.312 0 00-1.754-.732h-2.973zM168.032 273.15c1.31 0 2.344.35 3.102 1.05.759.701 1.137 1.661 1.137 2.881v5.819h-1.696v-1.31h-.077c-.734 1.079-1.71 1.618-2.929 1.618-1.04 0-1.91-.308-2.61-.925a2.953 2.953 0 01-1.05-2.312c0-.977.369-1.754 1.107-2.33.738-.578 1.724-.867 2.957-.868 1.053 0 1.92.192 2.6.578v-.405a2.018 2.018 0 00-.731-1.57 2.51 2.51 0 00-1.711-.646c-.99 0-1.774.418-2.35 1.253l-1.562-.983c.859-1.233 2.13-1.85 3.813-1.85zm-2.294 6.86c-.002.457.217.888.588 1.156.392.308.879.471 1.378.462a2.826 2.826 0 001.994-.828c.587-.553.88-1.201.88-1.945-.552-.44-1.323-.66-2.312-.66-.72 0-1.32.173-1.801.52-.486.352-.727.78-.727 1.295zM182.003 273.459l-5.919 13.602h-1.829l2.196-4.759-3.892-8.843h1.927l2.813 6.782h.038l2.736-6.782z"
        />
        <path
          fill="#4285F4"
          d="M149.54 276.108c0-.54-.046-1.08-.137-1.612h-7.476v3.053h4.282a3.67 3.67 0 01-1.583 2.409v1.982h2.555c1.496-1.38 2.358-3.42 2.358-5.832z"
        />
        <path
          fill="#34A853"
          d="M141.927 283.854c2.14 0 3.94-.702 5.254-1.913l-2.555-1.982c-.712.482-1.628.757-2.699.757-2.068 0-3.822-1.393-4.45-3.272h-2.633v2.043a7.927 7.927 0 007.083 4.367z"
        />
        <path
          fill="#FBBC04"
          d="M137.477 277.444a4.75 4.75 0 010-3.034v-2.042h-2.633a7.927 7.927 0 000 7.119l2.633-2.043z"
        />
        <path
          fill="#EA4335"
          d="M141.927 271.138a4.304 4.304 0 013.041 1.189l2.263-2.263a7.617 7.617 0 00-5.304-2.064 7.927 7.927 0 00-7.083 4.368l2.633 2.042c.628-1.878 2.382-3.272 4.45-3.272z"
        />
      </g>
    </svg>