    <svg xmlns="http://www.w3.org/2000/svg" viewBox="0 0 22 26" width="22px">
      <g fill="none" fillRule="nonzero">
        <path
          fill="#253B80"
          d="M6.055 24.295l.4358-2.7683-.9708-.0225H.8842L4.1058 1.0767a.27.27 0 01.09-.16.263.263 0 01.1717-.0634h7.8167c2.595 0 4.3858.54 5.3208 1.6059.4383.5.7175 1.0225.8525 1.5975.1417.6033.1442 1.3241.0058 2.2033l-.01.0642v.5633l.4384.2483c.3691.1959.6625.42.8875.6767.375.4275.6175.9708.72 1.615.1058.6625.0708 1.4508-.1025 2.3433-.2 1.0267-.5234 1.9209-.96 2.6525-.4017.6742-.9134 1.2334-1.5209 1.6667-.58.4117-1.2691.7242-2.0483.9242-.755.1966-1.6158.2958-2.56.2958h-.6083c-.435 0-.8575.1567-1.1892.4375-.3325.2867-.5525.6783-.62 1.1067l-.0458.2491-.77 4.8792-.035.1792c-.0092.0566-.025.085-.0484.1041a.1288.1288 0 01-.08.0292H6.055z"
        />
        <path
          fill="#179BD7"
          d="M19.2067 6.3892c-.0234.1491-.05.3016-.08.4583-1.0309 5.2925-4.5575 7.1208-9.0617 7.1208H7.7717c-.5509 0-1.015.4-1.1009.9434l-1.1741 7.4466-.3325 2.1109c-.0559.3566.2191.6783.5791.6783h4.0675c.4817 0 .8909-.35.9667-.825l.04-.2067.7658-4.86.0492-.2666a.9782.9782 0 01.9667-.8267h.6083c3.9408 0 7.0258-1.6 7.9275-6.23.3767-1.9342.1817-3.5492-.815-4.685-.3017-.3425-.6758-.6267-1.1133-.8583z"
        />
        <path
          fill="#222D65"
          d="M18.1283 5.9592a8.1308 8.1308 0 00-.4866-.125 9.2885 9.2885 0 00-.5159-.0975c-.6183-.1-1.2958-.1475-2.0216-.1475H8.9775a.9768.9768 0 00-.9658.8267l-1.3034 8.255-.0375.2408c.0859-.5434.55-.9434 1.1009-.9434h2.2933c4.5042 0 8.0308-1.8291 9.0617-7.1208.0308-.1567.0566-.3092.08-.4583-.2609-.1384-.5434-.2567-.8475-.3575a7.5372 7.5372 0 00-.2309-.0725z"
        />
        <path
          fill="#253B80"
          d="M8.0117 6.4158a.974.974 0 01.5433-.73.9755.9755 0 01.4225-.0958h6.1267c.7258 0 1.4033.0475 2.0216.1475.1767.0283.3484.0608.5159.0975.1666.0375.3291.0792.4866.125.0784.0233.1559.0475.2317.0717.3042.1008.5867.22.8475.3575.3067-1.9559-.0025-3.2875-1.06-4.4934C16.9817.5683 14.8775 0 12.185 0H4.3683c-.55 0-1.0191.4-1.1041.9442L.0083 21.5817c-.0641.4083.2509.7766.6625.7766h4.8259l1.2116-7.6875 1.3034-8.255z"
        />
      </g>
    </svg>